<?xml version="1.0" standalone="no"?>
<!DOCTYPE svg PUBLIC "-//W3C//DTD SVG 20010904//EN"
 "http://www.w3.org/TR/2001/REC-SVG-20010904/DTD/svg10.dtd">
<svg version="1.0" xmlns="http://www.w3.org/2000/svg"
 width="1024.000000pt" height="1024.000000pt" viewBox="0 0 1024.000000 1024.000000"
 preserveAspectRatio="xMidYMid meet">

<g transform="translate(0.000000,1024.000000) scale(0.100000,-0.100000)"
fill="#000000" stroke="none">
<path d="M1876 6423 c-11 -40 -316 -1362 -316 -1372 0 -8 104 -11 364 -11 339
0 365 1 370 18 3 9 34 143 70 297 36 154 74 318 85 365 11 47 52 222 91 390
39 168 73 311 75 318 3 9 -74 12 -365 12 -342 0 -369 -1 -374 -17z"/>
<path d="M2722 6398 c-17 -66 -312 -1347 -312 -1353 0 -3 163 -5 363 -5 l362
0 60 265 60 265 202 0 c131 0 203 -4 203 -10 0 -15 -111 -504 -117 -512 -2 -5
167 -8 375 -8 l380 0 31 133 c58 247 62 273 50 321 -12 50 -55 98 -112 128
-46 23 -155 48 -213 48 -45 0 -55 5 -47 26 4 10 24 14 73 14 186 0 318 67 388
197 36 69 83 244 83 317 1 30 -6 66 -15 84 -22 42 -78 86 -139 108 -49 18 -99
19 -858 22 l-806 3 -11 -43z m1078 -246 c0 -4 -14 -69 -30 -143 -17 -73 -33
-144 -35 -156 -5 -23 -6 -23 -210 -23 -167 0 -205 3 -205 14 0 13 57 277 65
304 3 9 54 12 210 12 113 0 205 -4 205 -8z"/>
<path d="M4634 6298 c78 -152 275 -530 397 -765 l74 -142 -39 -158 c-22 -87
-41 -166 -44 -175 -4 -17 19 -18 375 -18 l380 0 36 168 37 167 535 533 535
532 -423 -1 -422 0 -220 -255 c-121 -141 -221 -260 -223 -265 -10 -28 -28 15
-109 256 l-88 265 -438 0 -438 0 75 -142z"/>
<path d="M7144 6425 c-115 -25 -207 -90 -257 -183 -29 -54 -87 -275 -87 -335
0 -79 45 -138 140 -181 128 -58 243 -73 655 -81 164 -3 301 -8 304 -11 4 -4
-55 -284 -62 -290 -1 -1 -91 -6 -200 -10 l-198 -7 5 24 c17 69 36 173 36 190
0 18 -11 19 -389 19 l-388 0 -28 -117 c-15 -65 -30 -138 -32 -163 -10 -97 72
-179 216 -216 58 -15 140 -18 676 -22 722 -4 783 1 931 76 51 26 120 101 145
156 27 61 89 338 89 397 0 44 -5 54 -40 93 -75 82 -212 135 -400 156 -104 12
-654 15 -672 4 -7 -5 -9 1 -4 19 3 14 15 66 27 116 l21 91 199 0 c109 0 199
-1 199 -2 -1 -2 -9 -38 -19 -81 -10 -42 -15 -80 -10 -82 15 -10 591 -18 690
-11 l97 8 26 104 c29 117 32 167 12 215 -17 41 -37 60 -95 89 -95 48 -129 50
-851 49 -522 0 -689 -4 -736 -14z"/>
<path d="M1855 4839 c-169 -25 -277 -93 -328 -207 -29 -65 -197 -771 -196
-823 2 -94 56 -156 169 -195 52 -18 93 -19 665 -19 601 0 611 0 680 22 86 27
147 71 182 131 22 36 100 320 90 328 -1 1 -151 5 -333 9 l-331 7 -22 -102
c-25 -118 -33 -138 -67 -150 -30 -12 -314 -13 -314 -2 0 8 141 628 160 705
l12 47 158 0 c121 0 160 -3 169 -14 10 -12 -7 -110 -35 -208 -5 -17 15 -18
333 -18 l339 0 12 58 c60 273 60 278 -13 348 -49 48 -106 69 -215 84 -92 12
-1032 11 -1115 -1z"/>
<path d="M3801 4757 c-220 -318 -585 -848 -685 -994 l-117 -173 343 0 343 0
57 90 58 90 229 0 229 0 8 -90 7 -90 359 0 360 0 -5 23 c-3 12 -38 191 -77
397 -39 206 -91 478 -116 603 -24 126 -44 230 -44 233 0 2 -199 4 -442 4
l-443 0 -64 -93z m448 -634 l1 -92 -142 -3 c-79 -2 -144 -2 -146 -2 -1 1 46
80 106 175 60 96 122 197 138 224 l29 50 6 -130 c4 -71 7 -171 8 -222z"/>
<path d="M5226 4343 c-65 -280 -128 -551 -141 -603 -13 -52 -26 -107 -29 -122
l-6 -28 334 0 334 0 54 223 54 222 177 0 c151 0 177 -2 177 -15 0 -8 -20 -105
-45 -215 -25 -110 -45 -203 -45 -208 0 -4 149 -6 332 -5 l331 3 39 165 c42
178 43 221 9 269 -32 45 -131 89 -225 101 -44 5 -81 12 -84 14 -15 15 19 26
81 26 216 0 331 100 387 332 33 138 26 195 -33 256 -39 41 -113 68 -219 82
-49 6 -339 10 -723 10 l-640 0 -119 -507z m1084 233 c0 -17 -59 -278 -64 -283
-2 -2 -84 -2 -182 -1 l-180 3 35 148 35 147 178 0 c145 0 178 -3 178 -14z"/>
<path d="M7116 4643 c-76 -330 -236 -1016 -242 -1035 -5 -17 30 -18 629 -18
698 0 754 4 874 59 68 33 132 91 162 149 23 45 39 105 121 459 66 287 73 359
41 421 -39 75 -114 123 -234 149 -59 13 -180 16 -687 20 l-616 5 -48 -209z
m924 -69 c16 -19 14 -30 -75 -414 -57 -246 -70 -288 -91 -307 -23 -21 -34 -23
-156 -23 -130 0 -130 0 -125 23 3 12 43 183 88 380 l83 357 132 0 c107 0 134
-3 144 -16z"/>
</g>
</svg>
